
<svg width="40px" height="58px" viewBox="0 0 40 58" version="1.1" xmlns="http://www.w3.org/2000/svg" xmlns:xlink="http://www.w3.org/1999/xlink">
    <g id="Page-1" stroke="none" stroke-width="1" fill="none" fill-rule="evenodd">
        <g id="100-Basic-Element-Icons-Dark" transform="translate(-1242.000000, -1104.000000)" fill="#ffffff">
            <path d="M1279.93451,1153.74271 C1281.0932,1153.74271 1282,1152.84734 1282,1151.70326 L1282,1147.52487 C1282,1143.44597 1280.33753,1139.61578 1277.36524,1136.83019 C1277.56675,1135.53688 1277.71788,1134.24357 1277.71788,1133 C1277.71788,1118.82333 1264.06549,1105.14408 1263.46096,1104.59691 C1263.05793,1104.19897 1262.55416,1104 1262,1104 C1261.44584,1104 1260.94207,1104.19897 1260.53904,1104.59691 C1259.98489,1105.19383 1246.38287,1118.87307 1246.38287,1133 C1246.38287,1134.24357 1246.48363,1135.48714 1246.68514,1136.7307 C1243.71285,1139.56604 1242,1143.39623 1242,1147.52487 L1242,1151.70326 C1242,1152.84734 1242.9068,1153.74271 1244.06549,1153.74271 C1245.22418,1153.74271 1246.13098,1152.84734 1246.13098,1151.70326 L1246.13098,1147.52487 C1246.13098,1145.38593 1246.78589,1143.34648 1247.89421,1141.60549 C1248.49874,1143.44597 1249.35516,1145.38593 1250.36272,1147.3259 C1250.71537,1148.0223 1251.42065,1148.42024 1252.2267,1148.42024 L1259.98489,1148.42024 L1259.98489,1151.70326 C1259.98489,1152.84734 1260.89169,1153.74271 1262.05038,1153.74271 C1263.20907,1153.74271 1264.11587,1152.84734 1264.11587,1151.70326 L1264.11587,1148.42024 L1271.92443,1148.42024 C1272.6801,1148.42024 1273.38539,1147.97256 1273.78841,1147.3259 C1274.79597,1145.43568 1275.60202,1143.54545 1276.20655,1141.70497 C1277.31486,1143.44597 1277.9194,1145.43568 1277.9194,1147.52487 L1277.9194,1151.70326 C1277.86902,1152.7976 1278.77582,1153.74271 1279.93451,1153.74271 L1279.93451,1153.74271 Z M1270.61461,1144.34134 L1264.06549,1144.34134 L1264.06549,1141.05832 C1264.06549,1139.91424 1263.15869,1139.01887 1262,1139.01887 C1260.84131,1139.01887 1259.93451,1139.91424 1259.93451,1141.05832 L1259.93451,1144.34134 L1253.48615,1144.34134 C1252.32746,1141.90395 1251.47103,1139.5163 1251.01763,1137.32762 C1251.01763,1137.17839 1250.96725,1137.02916 1250.91688,1136.87993 C1250.66499,1135.53688 1250.51385,1134.24357 1250.51385,1133 C1250.51385,1123.15094 1258.62469,1112.90395 1262,1109.07376 C1265.42569,1112.90395 1273.5869,1123.1012 1273.5869,1133 C1273.5869,1136.43225 1272.57935,1140.26244 1270.61461,1144.34134 Z M1254.64484,1127.22985 C1254.64484,1131.25901 1257.96977,1134.59177 1262.10076,1134.59177 C1266.23174,1134.59177 1269.55668,1131.30875 1269.55668,1127.22985 C1269.55668,1123.15094 1266.23174,1119.86792 1262.10076,1119.86792 C1257.96977,1119.86792 1254.64484,1123.20069 1254.64484,1127.22985 L1254.64484,1127.22985 Z M1262.10076,1123.99657 C1263.91436,1123.99657 1265.42569,1125.43911 1265.42569,1127.27959 C1265.42569,1129.12007 1263.96474,1130.56261 1262.10076,1130.56261 C1260.28715,1130.56261 1258.77582,1129.12007 1258.77582,1127.27959 C1258.77582,1125.43911 1260.28715,1123.99657 1262.10076,1123.99657 Z M1252.62972,1159.96055 C1252.62972,1161.10463 1251.72292,1162 1250.56423,1162 C1249.40554,1162 1248.49874,1161.10463 1248.49874,1159.96055 L1248.49874,1153.1458 C1248.49874,1152.00172 1249.40554,1151.10635 1250.56423,1151.10635 C1251.72292,1151.10635 1252.62972,1152.00172 1252.62972,1153.1458 L1252.62972,1159.96055 Z M1275.50126,1159.96055 C1275.50126,1161.10463 1274.54408,1162 1273.43577,1162 C1272.27708,1162 1271.37028,1161.10463 1271.37028,1159.96055 L1271.37028,1153.1458 C1271.37028,1152.00172 1272.27708,1151.10635 1273.43577,1151.10635 C1274.59446,1151.10635 1275.50126,1152.00172 1275.50126,1153.1458 L1275.50126,1159.96055 Z" id="rocket-launch"></path>
        </g>
    </g>
</svg>